# xmcd
# Track frame offsets:
# 150
# 16575
# 30069
# 41457
# 57957
# 73932
# 91107
# 105882
# 121857
#
# Disc length: 1885 seconds
# Revision: 0
# Processed by: cddbd v1.5.1PL0 Copyright (c) Steve Scherf et al.
# Submitted via: VisiTrax 2.9.10.228 - For more info visit www.synapsa.com
#
DISCID=59075b09
DTITLE=Various Artist - Hits Monthly Nashville  PHN0109
DYEAR=1900
DGENRE=Karaoke
TTITLE0=Vassar, Phil - Six Pack Summer
TTITLE1=Keith, Toby - I'm Just Talkin' About Tonight
TTITLE2=Coty, Neal - Right Down Through The Middle Of Us
TTITLE3=Tritt, Travis - Love Of A Woman
TTITLE4=Trick Pony - On A Night Like This
TTITLE5=Wright, Chely - Never Love You Enough
TTITLE6=Kinleys, The - You're Still Here
TTITLE7=Cochran, Tammy - Angels In Waiting
TTITLE8=Wills, Mark - Loving Ever Minute
EXTD=
EXTT0=
EXTT1=
EXTT2=
EXTT3=
EXTT4=
EXTT5=
EXTT6=
EXTT7=
EXTT8=
PLAYORDER=
